<svg width="1025" height="2594" viewBox="0 0 1025 2594" fill="none" xmlns="http://www.w3.org/2000/svg">
<g style="mix-blend-mode:darken" filter="url(#filter0_d_10_26)">
<path d="M260.796 39.1644L223.25 0.71551L203.947 53.2845L257.453 48.2696L260.796 39.1644ZM396.561 504.966L392.163 502.922L396.561 504.966ZM698.864 836.462L694.049 837.045L698.864 836.462ZM164.202 1059.38L162.795 1064.03L164.202 1059.38ZM164.202 725.97L162.911 721.295L164.202 725.97ZM194.203 1549.01L189.738 1550.9L189.738 1550.9L194.203 1549.01ZM546.466 1577.59L541.778 1576.35L546.466 1577.59ZM863.77 1438.52L860.819 1442.37L863.77 1438.52ZM816.778 1724.55L815.464 1729.22L816.778 1724.55ZM578.959 1985.3L583.272 1983.08L583.272 1983.08L578.959 1985.3ZM606.443 2298.88L602.906 2295.56L606.443 2298.88ZM625.079 2591.9L627.342 2552.36L587.808 2550.1L585.545 2589.64L625.079 2591.9ZM239.856 41.9409C245.903 44.2351 251.847 46.5201 257.687 48.7962L261.209 39.7585C255.341 37.4716 249.37 35.1761 243.296 32.8719L239.856 41.9409ZM275.656 55.8989C281.856 58.3855 287.934 60.8612 293.89 63.326L297.599 54.3634C291.609 51.8847 285.499 49.3957 279.267 46.8963L275.656 55.8989ZM311.401 70.6881C317.519 73.3028 323.501 75.9052 329.35 78.4952L333.278 69.6263C327.389 67.0187 321.368 64.3996 315.212 61.7688L311.401 70.6881ZM347.066 86.4899C352.925 89.1852 358.639 91.8669 364.21 94.5352L368.4 85.787C362.782 83.0965 357.023 80.3935 351.12 77.678L347.066 86.4899ZM381.985 103.242C387.742 106.129 393.332 108.999 398.759 111.853L403.274 103.268C397.789 100.384 392.143 97.4849 386.332 94.5714L381.985 103.242ZM416.14 121.246C421.805 124.395 427.271 127.524 432.543 130.632L437.469 122.277C432.124 119.125 426.586 115.955 420.853 112.768L416.14 121.246ZM449.327 140.871C454.813 144.337 460.057 147.778 465.067 151.193L470.53 143.178C465.422 139.696 460.084 136.194 454.508 132.671L449.327 140.871ZM481.006 162.549C486.336 166.529 491.349 170.472 496.057 174.378L502.251 166.913C497.407 162.895 492.264 158.85 486.808 154.777L481.006 162.549ZM510.168 186.82C515.072 191.433 519.551 195.991 523.628 200.494L530.819 193.984C526.555 189.276 521.894 184.533 516.814 179.755L510.168 186.82ZM535.674 215.178C539.603 220.523 542.97 225.782 545.822 230.958L554.317 226.278C551.248 220.707 547.65 215.093 543.49 209.434L535.674 215.178ZM553.463 247.86C555.6 253.907 557.057 259.847 557.91 265.685L567.508 264.283C566.562 257.806 564.95 251.255 562.609 244.629L553.463 247.86ZM558.661 284.072C558.271 290.214 557.253 296.28 555.68 302.277L565.063 304.738C566.783 298.179 567.909 291.494 568.341 284.685L558.661 284.072ZM549.467 319.846C546.975 325.473 544.04 331.042 540.727 336.555L549.041 341.551C552.535 335.737 555.663 329.811 558.336 323.773L549.467 319.846ZM530.184 352.303C526.477 357.345 522.505 362.331 518.326 367.264L525.726 373.534C530.029 368.455 534.142 363.294 537.999 358.049L530.184 352.303ZM505.533 381.579C501.167 386.238 496.668 390.843 492.089 395.399L498.93 402.275C503.573 397.655 508.153 392.968 512.61 388.211L505.533 381.579ZM478.213 408.876C473.506 413.356 468.78 417.784 464.084 422.165L470.702 429.257C475.405 424.869 480.159 420.416 484.901 415.901L478.213 408.876ZM449.875 435.432C445.04 439.968 440.304 444.457 435.741 448.897L442.504 455.849C447.009 451.467 451.698 447.022 456.512 442.505L449.875 435.432ZM421.865 462.878C417.138 467.855 412.715 472.79 408.712 477.682L416.218 483.825C420.034 479.162 424.29 474.41 428.898 469.558L421.865 462.878ZM396.996 493.956C395.176 496.941 393.554 499.93 392.163 502.922L400.958 507.011C402.176 504.392 403.62 501.724 405.278 499.006L396.996 493.956ZM392.163 502.922C390.606 506.271 389.381 509.622 388.481 512.975L397.848 515.491C398.597 512.704 399.625 509.878 400.958 507.011L392.163 502.922ZM387.047 534.364C387.945 541.243 390.11 547.968 393.301 554.541L402.027 550.304C399.218 544.519 397.408 538.798 396.665 533.108L387.047 534.364ZM404.264 571.958C408.213 577.095 412.729 582.177 417.713 587.213L424.607 580.389C419.852 575.585 415.613 570.807 411.954 566.047L404.264 571.958ZM432.366 600.818C437.255 605.033 442.435 609.237 447.853 613.435L453.794 605.767C448.486 601.655 443.44 597.559 438.701 593.472L432.366 600.818ZM463.791 625.311C469.037 629.087 474.444 632.867 479.972 636.655L485.454 628.653C479.975 624.899 474.632 621.163 469.458 617.438L463.791 625.311ZM496.35 647.685C501.772 651.285 507.276 654.896 512.828 658.522L518.132 650.401C512.591 646.782 507.109 643.185 501.715 639.604L496.35 647.685ZM529.332 669.272C534.812 672.838 540.309 676.422 545.799 680.027L551.123 671.918C545.616 668.302 540.105 664.711 534.623 661.142L529.332 669.272ZM562.169 690.875C567.618 694.527 573.029 698.202 578.376 701.904L583.897 693.929C578.503 690.194 573.05 686.491 567.569 682.817L562.169 690.875ZM594.348 713.204C599.683 717.069 604.918 720.965 610.023 724.895L615.94 717.208C610.75 713.214 605.44 709.262 600.039 705.349L594.348 713.204ZM625.268 737.076C630.345 741.301 635.239 745.564 639.919 749.87L646.487 742.732C641.675 738.305 636.658 733.936 631.473 729.621L625.268 737.076ZM653.744 763.409C658.283 768.167 662.522 772.974 666.42 777.833L673.986 771.763C669.894 766.663 665.47 761.649 660.763 756.715L653.744 763.409ZM677.588 793.416C681.052 798.915 684.041 804.474 686.506 810.102L695.391 806.209C692.711 800.094 689.488 794.109 685.796 788.247L677.588 793.416ZM692.439 827.859C693.136 830.897 693.676 833.959 694.049 837.045L703.678 835.879C703.263 832.447 702.664 829.05 701.893 825.689L692.439 827.859ZM694.049 837.045C694.423 840.139 694.598 843.235 694.58 846.332L704.279 846.39C704.3 842.889 704.102 839.384 703.678 835.879L694.049 837.045ZM692.233 864.779C690.78 870.687 688.664 876.605 685.917 882.517L694.713 886.604C697.7 880.176 700.036 873.667 701.652 867.096L692.233 864.779ZM676.521 899.162C673.115 904.296 669.259 909.403 664.978 914.472L672.388 920.73C676.887 915.403 680.973 909.998 684.604 904.525L676.521 899.162ZM651.807 928.649C647.32 933.074 642.525 937.453 637.443 941.776L643.728 949.164C648.978 944.698 653.95 940.159 658.618 935.555L651.807 928.649ZM622.182 953.956C617.076 957.789 611.753 961.567 606.229 965.283L611.643 973.331C617.298 969.527 622.758 965.652 628.005 961.713L622.182 953.956ZM589.724 975.842C584.225 979.191 578.567 982.48 572.766 985.703L577.476 994.182C583.386 990.899 589.156 987.545 594.77 984.126L589.724 975.842ZM555.427 994.921C549.652 997.861 543.76 1000.74 537.763 1003.54L541.872 1012.33C547.964 1009.48 553.953 1006.56 559.827 1003.57L555.427 994.921ZM519.816 1011.59C513.834 1014.17 507.766 1016.67 501.623 1019.1L505.192 1028.12C511.422 1025.66 517.578 1023.11 523.65 1020.5L519.816 1011.59ZM483.215 1026.08C477.075 1028.31 470.874 1030.47 464.625 1032.55L467.685 1041.75C474.018 1039.65 480.303 1037.46 486.527 1035.2L483.215 1026.08ZM445.876 1038.5C439.605 1040.4 433.297 1042.22 426.962 1043.95L429.521 1053.3C435.941 1051.55 442.332 1049.71 448.686 1047.78L445.876 1038.5ZM407.905 1048.89C401.524 1050.45 395.127 1051.92 388.723 1053.3L390.767 1062.78C397.259 1061.38 403.743 1059.89 410.21 1058.31L407.905 1048.89ZM369.435 1057.17C362.968 1058.38 356.505 1059.48 350.058 1060.49L351.552 1070.07C358.095 1069.05 364.651 1067.93 371.21 1066.71L369.435 1057.17ZM330.589 1063.22C324.039 1064.04 317.517 1064.74 311.034 1065.33L311.915 1074.99C318.507 1074.39 325.134 1073.67 331.786 1072.85L330.589 1063.22ZM291.433 1066.78C284.833 1067.14 278.288 1067.39 271.81 1067.5L271.979 1077.2C278.585 1077.08 285.254 1076.84 291.973 1076.46L291.433 1066.78ZM252.197 1067.43C245.583 1067.27 239.057 1066.96 232.633 1066.5L231.938 1076.17C238.52 1076.64 245.198 1076.96 251.957 1077.13L252.197 1067.43ZM213.172 1064.59C206.605 1063.77 200.171 1062.77 193.886 1061.59L192.1 1071.13C198.587 1072.34 205.215 1073.37 211.965 1074.22L213.172 1064.59ZM174.883 1057.36C171.744 1056.54 168.652 1055.67 165.609 1054.74L162.795 1064.03C165.963 1064.99 169.176 1065.89 172.434 1066.74L174.883 1057.36ZM165.609 1054.74C162.586 1053.83 159.603 1052.87 156.658 1051.87L153.551 1061.06C156.594 1062.09 159.675 1063.08 162.795 1064.03L165.609 1054.74ZM139.193 1045.33C133.359 1042.93 127.701 1040.36 122.224 1037.65L117.918 1046.34C123.597 1049.15 129.457 1051.81 135.494 1054.3L139.193 1045.33ZM105.862 1028.8C100.44 1025.6 95.2275 1022.26 90.2314 1018.77L84.6828 1026.73C89.8848 1030.36 95.3056 1033.84 100.938 1037.15L105.862 1028.8ZM75.4213 1007.53C70.5684 1003.52 65.9692 999.369 61.6307 995.099L54.8263 1002.01C59.3687 1006.48 64.1771 1010.82 69.2431 1015.01L75.4213 1007.53ZM49.0506 981.522C45.0205 976.739 41.293 971.84 37.8761 966.847L29.8712 972.324C33.475 977.591 37.3991 982.747 41.6331 987.772L49.0506 981.522ZM28.2754 951.065C25.3374 945.577 22.7592 940.008 20.5499 934.382L11.5214 937.927C13.8731 943.916 16.6116 949.83 19.724 955.643L28.2754 951.065ZM14.9262 916.923C13.4166 910.946 12.3202 904.935 11.6472 898.917L2.00766 899.995C2.73076 906.461 3.90718 912.905 5.52182 919.298L14.9262 916.923ZM10.9145 880.678C11.1099 874.607 11.7489 868.554 12.8435 862.547L3.30103 860.808C2.11952 867.292 1.4305 873.822 1.21987 880.366L10.9145 880.678ZM17.4379 844.892C19.3698 839.224 21.7365 833.619 24.5514 828.101L15.9111 823.693C12.8876 829.62 10.3396 835.652 8.25696 841.762L17.4379 844.892ZM33.9787 812.374C37.3738 807.48 41.1606 802.677 45.3502 797.987L38.1163 791.525C33.6692 796.503 29.6356 801.617 26.0087 806.846L33.9787 812.374ZM58.3543 784.976C62.803 780.98 67.5847 777.09 72.7075 773.322L66.9598 765.509C61.5913 769.458 56.564 773.546 51.8729 777.76L58.3543 784.976ZM88.126 762.992C93.2625 759.855 98.6748 756.827 104.368 753.917L99.9543 745.28C94.0502 748.297 88.4237 751.445 83.071 754.714L88.126 762.992ZM121.241 746.008C126.799 743.621 132.584 741.337 138.6 739.165L135.305 730.042C129.115 732.277 123.152 734.631 117.414 737.095L121.241 746.008ZM156.341 733.291C159.341 732.383 162.391 731.501 165.492 730.645L162.911 721.295C159.735 722.172 156.608 723.076 153.531 724.007L156.341 733.291ZM165.492 730.645C168.509 729.812 171.552 729.029 174.619 728.294L172.36 718.862C169.187 719.621 166.037 720.432 162.911 721.295L165.492 730.645ZM193.198 724.486C199.389 723.422 205.666 722.539 212.02 721.834L210.95 712.194C204.411 712.919 197.943 713.828 191.554 714.927L193.198 724.486ZM230.963 720.263C237.233 719.913 243.566 719.724 249.954 719.69L249.903 709.99C243.357 710.025 236.861 710.219 230.423 710.578L230.963 720.263ZM268.989 720.039C275.295 720.299 281.644 720.703 288.03 721.244L288.849 711.579C282.328 711.026 275.84 710.614 269.39 710.347L268.989 720.039ZM307.039 723.248C313.304 724.035 319.596 724.948 325.908 725.983L327.478 716.412C321.049 715.357 314.637 714.426 308.248 713.624L307.039 723.248ZM344.688 729.409C350.906 730.656 357.136 732.017 363.373 733.487L365.598 724.046C359.258 722.552 352.922 721.168 346.596 719.899L344.688 729.409ZM381.938 738.179C388.063 739.83 394.188 741.583 400.306 743.434L403.114 734.15C396.904 732.271 390.685 730.491 384.464 728.814L381.938 738.179ZM418.534 749.243C424.573 751.264 430.598 753.378 436.606 755.58L439.944 746.473C433.852 744.239 427.74 742.095 421.613 740.045L418.534 749.243ZM454.488 762.417C460.41 764.774 466.307 767.216 472.175 769.737L476.005 760.825C470.057 758.27 464.079 755.795 458.076 753.405L454.488 762.417ZM489.67 777.532C495.466 780.207 501.227 782.959 506.946 785.783L511.241 777.086C505.446 774.224 499.608 771.436 493.734 768.725L489.67 777.532ZM524.008 794.488C529.668 797.47 535.28 800.522 540.839 803.64L545.584 795.18C539.951 792.02 534.265 788.928 528.529 785.906L524.008 794.488ZM557.408 813.224C562.905 816.502 568.34 819.844 573.709 823.245L578.9 815.051C573.457 811.603 567.947 808.216 562.376 804.894L557.408 813.224ZM589.757 833.724C595.078 837.305 600.324 840.944 605.487 844.636L611.129 836.747C605.89 833 600.569 829.309 595.173 825.677L589.757 833.724ZM620.865 855.98C625.973 859.866 630.989 863.805 635.905 867.792L642.014 860.258C637.019 856.207 631.925 852.207 626.738 848.26L620.865 855.98ZM650.581 880.094C655.44 884.305 660.185 888.562 664.809 892.861L671.413 885.757C666.705 881.38 661.876 877.047 656.934 872.764L650.581 880.094ZM678.537 906.103C683.071 910.645 687.465 915.224 691.712 919.838L698.848 913.268C694.509 908.556 690.025 903.881 685.402 899.251L678.537 906.103ZM704.334 934.164C708.486 939.096 712.463 944.058 716.258 949.043L723.977 943.169C720.082 938.052 716.004 932.966 711.755 927.918L704.334 934.164ZM727.37 964.485C730.98 969.809 734.373 975.152 737.54 980.506L745.889 975.569C742.616 970.035 739.115 964.523 735.398 959.041L727.37 964.485ZM746.61 997.119C749.479 1002.85 752.075 1008.59 754.386 1014.32L763.381 1010.69C760.968 1004.71 758.264 998.734 755.285 992.78L746.61 997.119ZM760.629 1032.07C762.453 1038.16 763.937 1044.24 765.067 1050.28L774.602 1048.5C773.406 1042.1 771.838 1035.69 769.921 1029.29L760.629 1032.07ZM767.413 1068.8C767.615 1071.91 767.716 1075 767.716 1078.09H777.416C777.416 1074.79 777.307 1071.48 777.092 1068.17L767.413 1068.8ZM767.716 1078.09C767.716 1081.24 767.51 1084.34 767.108 1087.37L776.723 1088.65C777.182 1085.19 777.416 1081.67 777.416 1078.09H767.716ZM762.329 1105.04C760.024 1110.6 756.996 1116 753.286 1121.26L761.209 1126.85C765.292 1121.07 768.683 1115.04 771.29 1108.75L762.329 1105.04ZM741.088 1135.67C736.799 1139.99 732.035 1144.22 726.826 1148.35L732.854 1155.95C738.326 1151.61 743.384 1147.13 747.977 1142.5L741.088 1135.67ZM711.238 1159.6C706.035 1163.04 700.53 1166.42 694.748 1169.73L699.572 1178.15C705.512 1174.74 711.194 1171.26 716.589 1167.69L711.238 1159.6ZM677.6 1178.99C671.913 1181.9 666.024 1184.76 659.952 1187.58L664.038 1196.37C670.208 1193.51 676.206 1190.6 682.012 1187.63L677.6 1178.99ZM642.119 1195.54C636.24 1198.07 630.225 1200.57 624.088 1203.05L627.72 1212.04C633.916 1209.54 639.999 1207.01 645.951 1204.45L642.119 1195.54ZM605.776 1210.25C599.73 1212.56 593.59 1214.86 587.368 1217.15L590.718 1226.26C596.976 1223.95 603.157 1221.64 609.249 1219.3L605.776 1210.25ZM568.938 1223.83C562.796 1226.02 556.593 1228.2 550.339 1230.38L553.531 1239.54C559.803 1237.35 566.029 1235.16 572.196 1232.96L568.938 1223.83ZM531.751 1236.81C525.573 1238.93 519.36 1241.05 513.121 1243.17L516.25 1252.36C522.492 1250.23 528.713 1248.1 534.9 1245.98L531.751 1236.81ZM494.441 1249.54C488.238 1251.65 482.021 1253.77 475.802 1255.91L478.949 1265.08C485.159 1262.95 491.369 1260.83 497.569 1258.72L494.441 1249.54ZM457.146 1262.35C450.93 1264.51 444.723 1266.68 438.536 1268.88L441.78 1278.02C447.945 1275.83 454.132 1273.66 460.331 1271.51L457.146 1262.35ZM419.929 1275.57C413.726 1277.83 407.555 1280.12 401.425 1282.43L404.849 1291.5C410.941 1289.21 417.079 1286.93 423.252 1284.68L419.929 1275.57ZM382.958 1289.54C376.771 1291.97 370.64 1294.43 364.577 1296.93L368.277 1305.9C374.285 1303.42 380.365 1300.98 386.506 1298.56L382.958 1289.54ZM346.425 1304.63C340.286 1307.31 334.234 1310.04 328.282 1312.81L332.379 1321.6C338.253 1318.87 344.233 1316.17 350.305 1313.52L346.425 1304.63ZM310.396 1321.46C304.43 1324.46 298.586 1327.51 292.88 1330.63L297.535 1339.14C303.133 1336.08 308.876 1333.08 314.749 1330.13L310.396 1321.46ZM275.558 1340.58C269.755 1344.08 264.129 1347.67 258.699 1351.34L264.136 1359.38C269.416 1355.8 274.901 1352.31 280.572 1348.88L275.558 1340.58ZM242.509 1363.04C237.139 1367.19 232.016 1371.46 227.168 1375.85L233.677 1383.04C238.326 1378.83 243.254 1374.73 248.443 1370.71L242.509 1363.04ZM212.861 1390.06C208.224 1395.14 203.943 1400.39 200.053 1405.8L207.932 1411.46C211.585 1406.37 215.625 1401.42 220.027 1396.6L212.861 1390.06ZM189.325 1423.09C186.145 1429.13 183.435 1435.36 181.236 1441.8L190.416 1444.94C192.445 1438.99 194.952 1433.22 197.908 1427.61L189.325 1423.09ZM176.24 1461.58C175.14 1468.17 174.549 1474.93 174.497 1481.9L184.196 1481.97C184.245 1475.51 184.792 1469.25 185.807 1463.18L176.24 1461.58ZM175.83 1502.26C176.716 1508.77 178.047 1515.44 179.842 1522.26L189.223 1519.8C187.523 1513.34 186.271 1507.06 185.442 1500.95L175.83 1502.26ZM185.873 1541.2C187.064 1544.4 188.352 1547.64 189.738 1550.9L198.667 1547.11C197.335 1543.98 196.102 1540.88 194.963 1537.82L185.873 1541.2ZM189.738 1550.9C191.047 1553.99 192.517 1557.02 194.139 1560L202.661 1555.37C201.182 1552.65 199.849 1549.9 198.667 1547.11L189.738 1550.9ZM205.195 1576.75C209.213 1581.9 213.686 1586.85 218.551 1591.61L225.334 1584.68C220.751 1580.2 216.57 1575.56 212.838 1570.78L205.195 1576.75ZM233.452 1604.65C238.55 1608.66 243.936 1612.49 249.565 1616.14L254.844 1608C249.445 1604.5 244.299 1600.84 239.447 1597.02L233.452 1604.65ZM266.471 1626.17C272.168 1629.26 278.048 1632.18 284.074 1634.93L288.092 1626.1C282.264 1623.45 276.587 1620.62 271.097 1617.65L266.471 1626.17ZM302.205 1642.47C308.286 1644.78 314.475 1646.91 320.74 1648.86L323.618 1639.6C317.539 1637.71 311.538 1635.64 305.645 1633.41L302.205 1642.47ZM339.632 1654.11C345.985 1655.67 352.385 1657.04 358.802 1658.22L360.544 1648.67C354.322 1647.54 348.114 1646.21 341.949 1644.69L339.632 1654.11ZM378.212 1661.14C384.76 1661.92 391.295 1662.47 397.785 1662.8L398.277 1653.12C392.011 1652.8 385.692 1652.26 379.353 1651.51L378.212 1661.14ZM417.427 1663.09C424.092 1662.94 430.673 1662.53 437.133 1661.84L436.106 1652.19C429.928 1652.85 423.616 1653.25 417.206 1653.39L417.427 1663.09ZM456.667 1658.83C463.265 1657.47 469.685 1655.79 475.877 1653.76L472.853 1644.54C467.038 1646.45 460.978 1648.04 454.717 1649.32L456.667 1658.83ZM494.382 1646.28C500.484 1643.3 506.268 1639.89 511.669 1636.03L506.03 1628.14C501.095 1631.66 495.776 1634.8 490.12 1637.57L494.382 1646.28ZM526.928 1622.79C531.546 1617.92 535.689 1612.58 539.289 1606.74L531.032 1601.65C527.791 1606.91 524.059 1611.72 519.89 1616.12L526.928 1622.79ZM548.106 1588.53C549.254 1585.4 550.272 1582.16 551.155 1578.83L541.778 1576.35C540.971 1579.4 540.043 1582.34 539 1585.18L548.106 1588.53ZM551.155 1578.83C551.963 1575.77 552.782 1572.7 553.615 1569.62L544.25 1567.09C543.413 1570.19 542.589 1573.28 541.778 1576.35L551.155 1578.83ZM558.72 1551.21C560.459 1545.12 562.26 1539.02 564.134 1532.93L554.864 1530.08C552.967 1536.24 551.148 1542.4 549.393 1548.54L558.72 1551.21ZM569.967 1514.81C572 1508.78 574.118 1502.8 576.331 1496.9L567.249 1493.49C564.993 1499.51 562.84 1505.59 560.776 1511.71L569.967 1514.81ZM583.343 1479.29C585.83 1473.41 588.429 1467.66 591.151 1462.06L582.428 1457.82C579.625 1463.59 576.957 1469.49 574.411 1475.5L583.343 1479.29ZM599.922 1445.38C603.074 1439.85 606.375 1434.53 609.837 1429.46L601.828 1423.99C598.203 1429.29 594.763 1434.84 591.493 1440.58L599.922 1445.38ZM621.107 1414.59C625.179 1409.78 629.447 1405.3 633.925 1401.21L627.38 1394.05C622.569 1398.45 618.016 1403.23 613.701 1408.33L621.107 1414.59ZM648.38 1389.86C653.476 1386.48 658.819 1383.55 664.43 1381.12L660.574 1372.22C654.413 1374.89 648.568 1378.1 643.018 1381.78L648.38 1389.86ZM681.737 1375.45C687.514 1374.13 693.564 1373.28 699.907 1372.96L699.411 1363.27C692.518 1363.62 685.91 1364.54 679.573 1365.99L681.737 1375.45ZM718.227 1373.43C724.104 1374.01 730.214 1375 736.568 1376.44L738.706 1366.97C731.985 1365.46 725.478 1364.4 719.179 1363.78L718.227 1373.43ZM754.583 1381.5C760.233 1383.39 766.055 1385.61 772.058 1388.16L775.861 1379.24C769.634 1376.59 763.568 1374.28 757.658 1372.3L754.583 1381.5ZM789.111 1396.12C794.52 1398.86 800.063 1401.86 805.743 1405.13L810.585 1396.73C804.762 1393.37 799.064 1390.29 793.49 1387.47L789.111 1396.12ZM821.995 1415.01C827.128 1418.29 832.364 1421.77 837.707 1425.48L843.234 1417.51C837.795 1413.74 832.455 1410.18 827.214 1406.83L821.995 1415.01ZM853.05 1436.5C855.617 1438.41 858.206 1440.36 860.819 1442.37L866.72 1434.67C864.07 1432.64 861.441 1430.65 858.835 1428.71L853.05 1436.5ZM860.819 1442.37C863.41 1444.35 865.962 1446.34 868.477 1448.33L874.491 1440.72C871.939 1438.7 869.349 1436.68 866.72 1434.67L860.819 1442.37ZM883.232 1460.35C888.193 1464.53 892.987 1468.7 897.617 1472.86L904.104 1465.65C899.393 1461.41 894.517 1457.17 889.476 1452.93L883.232 1460.35ZM911.624 1485.92C916.304 1490.45 920.789 1494.97 925.083 1499.46L932.099 1492.77C927.714 1488.17 923.138 1483.57 918.368 1478.95L911.624 1485.92ZM937.937 1513.52C942.221 1518.42 946.276 1523.3 950.106 1528.14L957.712 1522.12C953.782 1517.15 949.625 1512.16 945.241 1507.14L937.937 1513.52ZM961.479 1543.34C965.235 1548.67 968.711 1553.94 971.914 1559.15L980.178 1554.07C976.864 1548.68 973.275 1543.24 969.407 1537.75L961.479 1543.34ZM981.22 1575.58C984.208 1581.35 986.848 1587.03 989.148 1592.6L998.114 1588.9C995.702 1583.06 992.943 1577.13 989.833 1571.12L981.22 1575.58ZM995.428 1610.29C997.272 1616.53 998.659 1622.59 999.605 1628.47L1009.18 1626.93C1008.17 1620.62 1006.68 1614.15 1004.73 1607.54L995.428 1610.29ZM1001.15 1646.84C1001.16 1653.21 1000.6 1659.29 999.472 1665.05L1008.99 1666.91C1010.24 1660.49 1010.86 1653.78 1010.85 1646.82L1001.15 1646.84ZM994.033 1682.32C991.546 1687.84 988.419 1692.96 984.671 1697.66L992.255 1703.71C996.512 1698.37 1000.06 1692.55 1002.88 1686.3L994.033 1682.32ZM971.784 1710.29C967.147 1713.87 961.962 1717.05 956.234 1719.81L960.437 1728.55C966.74 1725.52 972.506 1721.98 977.707 1717.97L971.784 1710.29ZM939.058 1726.28C933.362 1727.91 927.281 1729.2 920.821 1730.12L922.195 1739.72C929.063 1738.74 935.578 1737.36 941.726 1735.6L939.058 1726.28ZM902.197 1731.72C896.199 1731.91 889.941 1731.84 883.429 1731.47L882.88 1741.15C889.664 1741.53 896.211 1741.62 902.515 1741.41L902.197 1731.72ZM864.635 1729.67C858.588 1728.87 852.357 1727.85 845.944 1726.58L844.067 1736.1C850.672 1737.4 857.105 1738.46 863.364 1739.29L864.635 1729.67ZM827.428 1722.39C824.353 1721.6 821.241 1720.77 818.093 1719.88L815.464 1729.22C818.688 1730.13 821.879 1730.98 825.034 1731.79L827.428 1722.39ZM818.093 1719.88C814.92 1718.99 811.774 1718.15 808.656 1717.37L806.298 1726.78C809.324 1727.54 812.38 1728.35 815.464 1729.22L818.093 1719.88ZM789.843 1713.26C783.358 1712.05 776.999 1711.09 770.767 1710.37L769.651 1720C775.657 1720.7 781.796 1721.63 788.069 1722.79L789.843 1713.26ZM751.493 1708.87C744.882 1708.61 738.427 1708.63 732.13 1708.91L732.567 1718.6C738.586 1718.33 744.768 1718.31 751.114 1718.56L751.493 1708.87ZM712.823 1710.67C706.274 1711.57 699.92 1712.78 693.76 1714.27L696.039 1723.69C701.881 1722.28 707.918 1721.14 714.151 1720.27L712.823 1710.67ZM675.054 1719.85C668.829 1722.08 662.838 1724.62 657.082 1727.44L661.349 1736.15C666.78 1733.49 672.439 1731.09 678.325 1728.98L675.054 1719.85ZM640.096 1736.99C634.556 1740.53 629.28 1744.36 624.272 1748.44L630.397 1755.96C635.122 1752.11 640.098 1748.5 645.324 1745.16L640.096 1736.99ZM609.865 1761.58C605.297 1766.24 601.01 1771.14 597.006 1776.23L604.63 1782.22C608.421 1777.4 612.476 1772.78 616.793 1768.37L609.865 1761.58ZM585.79 1792.15C582.33 1797.65 579.158 1803.31 576.274 1809.12L584.96 1813.43C587.702 1807.91 590.716 1802.53 593.999 1797.32L585.79 1792.15ZM568.481 1826.92C566.17 1832.98 564.15 1839.14 562.421 1845.38L571.768 1847.97C573.417 1842.02 575.342 1836.15 577.543 1830.38L568.481 1826.92ZM558.102 1864.31C556.951 1870.69 556.096 1877.12 555.538 1883.55L565.201 1884.39C565.734 1878.25 566.55 1872.12 567.648 1866.03L558.102 1864.31ZM554.754 1902.96C554.793 1909.46 555.138 1915.94 555.791 1922.36L565.441 1921.38C564.82 1915.27 564.491 1909.1 564.453 1902.9L554.754 1902.96ZM558.705 1941.59C560.002 1947.98 561.621 1954.28 563.563 1960.45L572.816 1957.54C570.977 1951.7 569.442 1945.73 568.21 1939.66L558.705 1941.59ZM570.437 1978.7C571.756 1981.68 573.159 1984.62 574.646 1987.51L583.272 1983.08C581.872 1980.36 580.551 1977.59 579.308 1974.78L570.437 1978.7ZM574.646 1987.51C576.13 1990.4 577.443 1993.2 578.594 1995.91L587.525 1992.13C586.274 1989.18 584.858 1986.16 583.272 1983.08L574.646 1987.51ZM584.047 2013.15C585.308 2019.49 585.563 2025.29 584.999 2030.63L594.645 2031.65C595.32 2025.26 594.995 2018.47 593.56 2011.26L584.047 2013.15ZM580.178 2047.19C577.642 2052.32 574.215 2057.09 570.037 2061.6L577.148 2068.19C581.852 2063.12 585.855 2057.59 588.871 2051.5L580.178 2047.19ZM556.391 2073.62C551.603 2077.17 546.385 2080.53 540.861 2083.74L545.744 2092.13C551.498 2088.77 557.027 2085.22 562.166 2081.41L556.391 2073.62ZM524.314 2092.64C518.708 2095.45 512.979 2098.17 507.23 2100.86L511.335 2109.64C517.116 2106.94 522.939 2104.18 528.664 2101.3L524.314 2092.64ZM489.903 2108.92C483.964 2111.71 478.132 2114.51 472.575 2117.39L477.031 2126C482.428 2123.21 488.133 2120.47 494.028 2117.7L489.903 2108.92ZM455.601 2127.08C449.654 2130.91 444.266 2135.01 439.8 2139.51L446.68 2146.34C450.502 2142.5 455.284 2138.82 460.857 2135.23L455.601 2127.08ZM428.393 2157.31C427.283 2160.77 426.695 2164.4 426.695 2168.2H436.395C436.395 2165.41 436.823 2162.79 437.628 2160.28L428.393 2157.31ZM426.695 2168.2C426.695 2172.26 427.604 2176 429.348 2179.39L437.973 2174.95C436.955 2172.97 436.395 2170.76 436.395 2168.2H426.695ZM445.066 2193.59C450.399 2196.29 456.657 2198.45 463.49 2200.23L465.944 2190.85C459.51 2189.17 453.961 2187.22 449.45 2184.93L445.066 2193.59ZM482.087 2204.1C488.045 2205.09 494.288 2205.95 500.691 2206.73L501.86 2197.1C495.55 2196.33 489.456 2195.49 483.679 2194.53L482.087 2204.1ZM519.265 2208.77C525.377 2209.39 531.601 2210 537.737 2210.62L538.707 2200.96C532.513 2200.34 526.368 2199.74 520.249 2199.12L519.265 2208.77ZM556.128 2212.58C562.374 2213.3 568.478 2214.09 574.349 2214.99L575.813 2205.4C569.793 2204.48 563.567 2203.68 557.246 2202.94L556.128 2212.58ZM592.303 2218.3C598.634 2219.73 604.404 2221.36 609.475 2223.28L612.902 2214.2C607.29 2212.08 601.06 2210.33 594.431 2208.84L592.303 2218.3ZM624.23 2231.32C628.565 2234.94 631.038 2239.04 631.688 2243.89L641.302 2242.61C640.271 2234.9 636.273 2228.74 630.443 2223.87L624.23 2231.32ZM628.945 2259.31C627.073 2263.82 624.239 2268.9 620.262 2274.6L628.215 2280.15C632.486 2274.03 635.701 2268.34 637.905 2263.03L628.945 2259.31ZM609.211 2288.6C607.251 2290.85 605.151 2293.17 602.906 2295.56L609.98 2302.2C612.301 2299.72 614.482 2297.31 616.527 2294.97L609.211 2288.6ZM602.906 2295.56C600.666 2297.95 598.503 2300.34 596.416 2302.74L603.729 2309.11C605.736 2306.8 607.819 2304.5 609.98 2302.2L602.906 2295.56ZM584.427 2317.62C580.517 2322.9 576.954 2328.18 573.719 2333.46L581.989 2338.53C585.072 2333.5 588.475 2328.45 592.22 2323.4L584.427 2317.62ZM564.437 2350.36C561.55 2356.29 559.053 2362.21 556.914 2368.08L566.029 2371.4C568.052 2365.84 570.419 2360.24 573.159 2354.61L564.437 2350.36ZM551.315 2386.52C549.75 2392.91 548.583 2399.24 547.77 2405.49L557.389 2406.74C558.157 2400.84 559.259 2394.86 560.737 2388.83L551.315 2386.52ZM546.335 2424.72C546.203 2431.26 546.43 2437.67 546.961 2443.95L556.626 2443.13C556.123 2437.18 555.908 2431.1 556.033 2424.92L546.335 2424.72ZM549.534 2463.03C550.722 2469.47 552.195 2475.71 553.886 2481.74L563.226 2479.12C561.609 2473.36 560.203 2467.4 559.072 2461.27L549.534 2463.03ZM559.836 2499.97C562.146 2506.17 564.637 2512.07 567.214 2517.63L576.016 2513.56C573.536 2508.2 571.142 2502.53 568.925 2496.58L559.836 2499.97ZM575.872 2534.68C579.241 2540.76 582.585 2546.24 585.71 2551.05L593.843 2545.77C590.831 2541.13 587.606 2535.84 584.357 2529.98L575.872 2534.68ZM596.743 2566.73C598.583 2569.13 600.086 2570.98 601.137 2572.25C601.663 2572.88 602.076 2573.37 602.361 2573.7C602.504 2573.86 602.615 2573.99 602.693 2574.08C602.732 2574.12 602.762 2574.16 602.784 2574.18C602.795 2574.2 602.804 2574.21 602.81 2574.21C602.814 2574.22 602.816 2574.22 602.819 2574.22C602.82 2574.22 602.821 2574.22 602.821 2574.23C602.822 2574.23 602.822 2574.23 602.823 2574.23C602.823 2574.23 602.823 2574.23 602.823 2574.23C602.823 2574.23 602.823 2574.23 606.443 2571C610.063 2567.77 610.063 2567.77 610.063 2567.77C610.063 2567.77 610.064 2567.77 610.064 2567.77C610.064 2567.77 610.064 2567.77 610.064 2567.77C610.064 2567.77 610.065 2567.77 610.065 2567.77C610.065 2567.77 610.064 2567.77 610.063 2567.77C610.061 2567.77 610.056 2567.76 610.05 2567.76C610.037 2567.74 610.016 2567.72 609.986 2567.68C609.926 2567.62 609.833 2567.51 609.709 2567.37C609.459 2567.08 609.084 2566.64 608.597 2566.05C607.623 2564.88 606.201 2563.12 604.444 2560.83L596.743 2566.73Z" fill="#004D9E"/>
</g>
<g filter="url(#filter1_d_10_26)">
<path d="M229.598 39C854.2 264.83 462.866 405.408 412.561 512.645C362.255 619.882 698.006 703.098 714.864 841.144C731.722 979.19 368.571 1118.63 180.202 1062.05C-8.16721 1005.47 -52.157 795.204 180.202 731.651C412.561 668.097 788.566 891.623 788.566 1080.58C788.566 1269.54 85.3265 1255.72 210.203 1547.25C257.103 1656.74 526.47 1710.45 562.466 1575.57C598.462 1440.68 658.331 1269.53 879.77 1437.75C1101.21 1605.98 1047.52 1781.12 832.778 1721.2C618.033 1661.29 533.993 1862.14 594.959 1979.59C655.925 2097.04 447.545 2094.66 447.545 2160.84C447.545 2227.03 746.857 2158.94 622.443 2290.34C498.029 2421.74 622.443 2560 622.443 2560" stroke="#AC1010" stroke-width="4.14308" shape-rendering="crispEdges"/>
</g>
<defs>
<filter id="filter0_d_10_26" x="0.299043" y="0.71582" width="1011.47" height="2593.02" filterUnits="userSpaceOnUse" color-interpolation-filters="sRGB">
<feFlood flood-opacity="0" result="BackgroundImageFix"/>
<feColorMatrix in="SourceAlpha" type="matrix" values="0 0 0 0 0 0 0 0 0 0 0 0 0 0 0 0 0 0 127 0" result="hardAlpha"/>
<feOffset dy="0.920684"/>
<feGaussianBlur stdDeviation="0.460342"/>
<feComposite in2="hardAlpha" operator="out"/>
<feColorMatrix type="matrix" values="0 0 0 0 0 0 0 0 0 0 0 0 0 0 0 0 0 0 0.25 0"/>
<feBlend mode="normal" in2="BackgroundImageFix" result="effect1_dropShadow_10_26"/>
<feBlend mode="normal" in="SourceGraphic" in2="effect1_dropShadow_10_26" result="shape"/>
</filter>
<filter id="filter1_d_10_26" x="19.0071" y="37.0518" width="1005.99" height="2526.17" filterUnits="userSpaceOnUse" color-interpolation-filters="sRGB">
<feFlood flood-opacity="0" result="BackgroundImageFix"/>
<feColorMatrix in="SourceAlpha" type="matrix" values="0 0 0 0 0 0 0 0 0 0 0 0 0 0 0 0 0 0 127 0" result="hardAlpha"/>
<feOffset dy="0.920684"/>
<feGaussianBlur stdDeviation="0.460342"/>
<feComposite in2="hardAlpha" operator="out"/>
<feColorMatrix type="matrix" values="0 0 0 0 0 0 0 0 0 0 0 0 0 0 0 0 0 0 0.25 0"/>
<feBlend mode="normal" in2="BackgroundImageFix" result="effect1_dropShadow_10_26"/>
<feBlend mode="normal" in="SourceGraphic" in2="effect1_dropShadow_10_26" result="shape"/>
</filter>
</defs>
</svg>
